
<svg width="381" height="456" viewBox="0 0 381 456" fill="none" xmlns="http://www.w3.org/2000/svg">
<path d="M356.184 38.7728L59.0096 12.7734C54.6081 12.3883 50.7279 15.6443 50.3428 20.0457L16.299 409.168C15.9139 413.57 19.1698 417.45 23.5713 417.835L320.745 443.835C325.147 444.22 329.027 440.964 329.412 436.562L363.456 47.4396C363.841 43.0381 360.585 39.1579 356.184 38.7728Z" fill="url(#paint0_linear_361_55)"/>
<path d="M301.89 1.57558L8.11235 53.3764C3.76119 54.1437 0.855846 58.2929 1.62307 62.6441L69.4516 447.319C70.2188 451.67 74.3681 454.575 78.7193 453.808L372.497 402.007C376.848 401.24 379.753 397.091 378.986 392.74L311.157 8.06486C310.39 3.71371 306.241 0.808359 301.89 1.57558Z" fill="url(#paint1_linear_361_55)"/>
<path d="M233.022 106.919L132.193 126.638C130.536 126.963 129.309 128.364 129.209 130.047L123.006 234.601C122.86 237.063 125.126 238.975 127.534 238.42L155.607 231.954C158.233 231.349 160.606 233.658 160.067 236.295L151.726 277.058C151.165 279.801 153.746 282.147 156.43 281.333L173.769 276.075C176.457 275.261 179.04 277.613 178.471 280.359L165.217 344.388C164.387 348.394 169.725 350.578 171.951 347.144L173.438 344.85L255.599 181.196C256.975 178.455 254.602 175.331 251.587 175.912L222.691 181.478C219.976 182 217.665 179.476 218.432 176.825L237.292 111.57C238.059 108.914 235.74 106.387 233.022 106.919Z" fill="white"/>
<defs>
<linearGradient id="paint0_linear_361_55" x1="51.3295" y1="11.9476" x2="328.662" y2="444.766" gradientUnits="userSpaceOnUse">
<stop stop-color="#00B2FF"/>
<stop offset="1" stop-color="#AD00FF"/>
</linearGradient>
<linearGradient id="paint1_linear_361_55" x1="155.001" y1="27.476" x2="225.608" y2="427.908" gradientUnits="userSpaceOnUse">
<stop offset="0.375" stop-color="#41B883"/>
<stop offset="1" stop-color="#05AEFF"/>
</linearGradient>
</defs>
</svg>
