<svg xmlns="http://www.w3.org/2000/svg" fill="none" viewBox="0 0 48 48"><g clip-path="url(#a)"><path fill="#fff" d="M32.058.157 9.612 3.31c-3.1.436-5.262 3.283-4.83 6.36L9.48 43.09c.432 3.077 3.295 5.218 6.394 4.782L38.32 44.72c3.1-.436 5.261-3.283 4.83-6.36L38.451 4.94C38.02 1.861 35.157-.28 32.058.156Z"/><path stroke="url(#b)" stroke-width="2" d="m9.263 4.37 23.422-3.292c2.3-.323 4.39 1.246 4.7 3.46l4.85 34.5c.31 2.215-1.266 4.299-3.566 4.622l-23.422 3.292c-2.3.323-4.39-1.245-4.701-3.46l-4.849-34.5c-.31-2.215 1.266-4.299 3.566-4.622Z"/><mask id="c" width="27" height="26" x="11" y="11" maskUnits="userSpaceOnUse" style="mask-type:luminance"><path fill="#fff" d="m33.99 11.252-22.446 3.154 3.131 22.281 22.446-3.154-3.13-22.281Z"/></mask><g mask="url(#c)"><path fill="url(#d)" d="m33.885 14.614-7.523 19.562a.55.55 0 0 1-.953.138L12.585 17.609a.556.556 0 0 1 .457-.896l10.34.398a.546.546 0 0 0 .194-.027l9.618-3.2a.556.556 0 0 1 .69.73Z"/><path fill="url(#e)" d="m27.595 12.239-7.247 2.52a.278.278 0 0 0-.185.284l.638 7.867a.277.277 0 0 0 .374.238l2.008-.774a.277.277 0 0 1 .375.277l-.189 3.129a.277.277 0 0 0 .393.27l1.226-.573c.19-.088.406.06.393.271l-.308 4.916c-.02.307.398.414.526.135l.086-.186 4.358-13.066a.278.278 0 0 0-.352-.353l-2.078.716a.278.278 0 0 1-.363-.303l.71-5.065a.278.278 0 0 0-.365-.303Z"/></g></g><defs><linearGradient id="b" x1="3.167" x2="44.035" y1="3.484" y2="45.26" gradientUnits="userSpaceOnUse"><stop stop-color="#49C7FF"/><stop offset="1" stop-color="#BD36FF"/></linearGradient><linearGradient id="d" x1="12.129" x2="27.183" y1="16.18" y2="31.464" gradientUnits="userSpaceOnUse"><stop stop-color="#41D1FF"/><stop offset="1" stop-color="#BD34FE"/></linearGradient><linearGradient id="e" x1="22.269" x2="26.772" y1="13.395" y2="28.739" gradientUnits="userSpaceOnUse"><stop stop-color="#FFEA83"/><stop offset=".083" stop-color="#FFDD35"/><stop offset="1" stop-color="#FFA800"/></linearGradient><clipPath id="a"><path fill="#fff" d="M0 0h48v48H0z"/></clipPath></defs></svg>