<svg width="160" height="192" viewBox="0 0 160 192" fill="none" xmlns="http://www.w3.org/2000/svg">
  <g clip-path="url(#clip0_1288_1252)">
    <path d="M0.126859 44.0406C-0.862388 37.2738 4.04159 31.0172 11.0801 30.0661L113.035 16.2904C120.074 15.3394 126.582 20.054 127.571 26.8209L147.721 164.661C148.71 171.428 143.806 177.685 136.767 178.635L39.0605 191.837C29.6758 193.106 20.9988 186.819 19.6798 177.797L0.126859 44.0406Z" fill="url(#paint0_linear_1288_1252)"/>
    <path d="M124.189 0.1236L19.7157 14.0771C12.5033 15.0403 7.47777 21.3742 8.49079 28.2241L29.2786 168.79C30.2916 175.64 36.9596 180.412 44.172 179.449L148.645 165.496C155.858 164.532 160.883 158.198 159.87 151.349L139.082 10.7823C138.069 3.93238 131.401 -0.839685 124.189 0.1236Z" fill="white"/>
    <path fill-rule="evenodd" clip-rule="evenodd" d="M20.6328 20.2785C17.0266 20.7602 14.5138 23.9271 15.0203 27.3521L35.8081 167.918C36.3146 171.343 39.6486 173.729 43.2548 173.248L147.728 159.294C151.334 158.813 153.847 155.646 153.341 152.221L132.553 11.6544C132.046 8.22946 128.712 5.84342 125.106 6.32507L20.6328 20.2785ZM8.49072 28.2242C7.47771 21.3742 12.5033 15.0404 19.7157 14.0771L124.189 0.123616C131.401 -0.83967 138.069 3.9324 139.082 10.7823L159.87 151.349C160.883 158.198 155.858 164.532 148.645 165.496L44.1719 179.449C36.9596 180.412 30.2916 175.64 29.2786 168.79L8.49072 28.2242Z" fill="url(#paint1_linear_1288_1252)"/>
    <path d="M117.649 103.244L55.8226 111.376C53.3836 111.697 51.6843 113.807 52.027 116.09L56.0613 142.955C56.4041 145.237 58.6591 146.827 61.0981 146.507L122.924 138.375C125.363 138.054 127.063 135.943 126.72 133.661L122.686 106.796C122.343 104.513 120.088 102.923 117.649 103.244Z" stroke="url(#paint2_linear_1288_1252)" stroke-width="4"/>
    <path d="M63.6477 140.356L60.2921 117.143L67.5741 116.148L76.0898 123.687L82.1382 114.157L89.4202 113.163L92.7764 136.375L85.4939 137.37L83.5693 124.057L77.5209 133.587L69.0052 126.047L70.9298 139.36L63.6477 140.356ZM109.16 134.136L96.609 124.365L103.891 123.369L102.163 111.421L109.446 110.427L111.173 122.374L118.455 121.379L109.16 134.136Z" fill="url(#paint3_linear_1288_1252)"/>
    <path d="M106.461 35.6734L85.0897 87.1815C84.6484 88.245 83.1468 88.4541 82.4101 87.555L46.5625 43.7851C45.76 42.8053 46.5412 41.3811 47.858 41.4233L76.9122 42.3556C77.0976 42.3617 77.2828 42.3363 77.459 42.2807L104.529 33.76C105.778 33.3669 106.94 34.518 106.461 35.6734Z" fill="url(#paint4_linear_1288_1252)"/>
    <path d="M88.8117 29.4996L68.4122 36.2029C68.0769 36.313 67.8619 36.6223 67.8893 36.955L69.591 57.6271C69.6311 58.114 70.1569 58.4249 70.6418 58.2485L76.2932 56.1908C76.8221 55.9984 77.3816 56.3843 77.3448 56.9164L76.7769 65.1425C76.7388 65.6961 77.3423 66.0835 77.8772 65.8484L81.3316 64.3297C81.8672 64.0943 82.4715 64.4829 82.4319 65.0371L81.508 77.9629C81.4502 78.7715 82.6224 79.0495 82.987 78.3136L83.2305 77.8222L95.63 43.426C95.8377 42.85 95.2552 42.3043 94.6453 42.503L88.7963 44.4074C88.2468 44.5862 87.6946 44.1564 87.778 43.615L89.8327 30.2912C89.9162 29.7488 89.3612 29.3188 88.8117 29.4996Z" fill="url(#paint5_linear_1288_1252)"/>
  </g>
  <defs>
    <linearGradient id="paint0_linear_1288_1252" x1="0.447139" y1="16.581" x2="148.308" y2="191.531" gradientUnits="userSpaceOnUse">
      <stop stop-color="#508AB7"/>
      <stop offset="1" stop-color="#2D1342"/>
    </linearGradient>
    <linearGradient id="paint1_linear_1288_1252" x1="6.6565" y1="15.8213" x2="160.101" y2="165.396" gradientUnits="userSpaceOnUse">
      <stop stop-color="#49C7FF"/>
      <stop offset="1" stop-color="#BD36FF"/>
    </linearGradient>
    <linearGradient id="paint2_linear_1288_1252" x1="55.6798" y1="114.377" x2="121.209" y2="145.088" gradientUnits="userSpaceOnUse">
      <stop stop-color="#49C8FF"/>
      <stop offset="1" stop-color="#BE35FF"/>
    </linearGradient>
    <linearGradient id="paint3_linear_1288_1252" x1="60.7655" y1="117.538" x2="120.328" y2="133.876" gradientUnits="userSpaceOnUse">
      <stop stop-color="#4BC7FF"/>
      <stop offset="1" stop-color="#B93DFF"/>
    </linearGradient>
    <linearGradient id="paint4_linear_1288_1252" x1="45.2957" y1="40.0327" x2="84.5852" y2="82.667" gradientUnits="userSpaceOnUse">
      <stop stop-color="#41D1FF"/>
      <stop offset="1" stop-color="#BD34FE"/>
    </linearGradient>
    <linearGradient id="paint5_linear_1288_1252" x1="73.8285" y1="32.5977" x2="85.1242" y2="73.2134" gradientUnits="userSpaceOnUse">
      <stop stop-color="#FFEA83"/>
      <stop offset="0.0833333" stop-color="#FFDD35"/>
      <stop offset="1" stop-color="#FFA800"/>
    </linearGradient>
    <clipPath id="clip0_1288_1252">
      <rect width="160" height="192" fill="white"/>
    </clipPath>
  </defs>
</svg>
